<svg xmlns="http://www.w3.org/2000/svg" xmlns:xlink="http://www.w3.org/1999/xlink" viewBox="0 0 500 500" width="500" height="500" preserveAspectRatio="xMidYMid meet" style="width: 100%; height: 100%; transform: translate3d(0px, 0px, 0px); content-visibility: visible;"><defs><clipPath id="__lottie_element_1686"><rect width="500" height="500" x="0" y="0"/></clipPath><clipPath id="__lottie_element_1688"><path d="M0,0 L500,0 L500,500 L0,500z"/></clipPath></defs><g clip-path="url(#__lottie_element_1686)"><g clip-path="url(#__lottie_element_1688)" transform="matrix(1,0,0,1,0,0)" opacity="1" style="display: block;"><g class="primary design" transform="matrix(1,0,0,1,0,0)" opacity="1" style="display: none;"><g opacity="1" transform="matrix(1,0,0,1,249.9969940185547,354.1619873046875)"><path class="primary" fill="rgb(18,19,49)" fill-opacity="1" d=" M166.71600341796875,-83.3280029296875 C155.25799560546875,-83.3280029296875 145.88299560546875,-73.9530029296875 145.88299560546875,-62.494998931884766 C145.88299560546875,-62.494998931884766 145.88299560546875,25.6299991607666 145.88299560546875,25.6299991607666 C145.88299560546875,40.8390007019043 128.58999633789062,41.672000885009766 125.04900360107422,41.672000885009766 C125.04900360107422,41.672000885009766 -124.95099639892578,41.672000885009766 -124.95099639892578,41.672000885009766 C-128.49200439453125,41.672000885009766 -145.78399658203125,40.8390007019043 -145.78399658203125,25.6299991607666 C-145.78399658203125,25.6299991607666 -145.78399658203125,-62.494998931884766 -145.78399658203125,-62.494998931884766 C-145.78399658203125,-73.9530029296875 -155.15899658203125,-83.3280029296875 -166.61700439453125,-83.3280029296875 C-178.0749969482422,-83.3280029296875 -187.4510040283203,-73.9530029296875 -187.4510040283203,-62.494998931884766 C-187.4510040283203,-62.494998931884766 -187.4510040283203,25.6299991607666 -187.4510040283203,25.6299991607666 C-187.4510040283203,59.17300033569336 -161.2010040283203,83.33799743652344 -124.95099639892578,83.33799743652344 C-124.95099639892578,83.33799743652344 125.04900360107422,83.33799743652344 125.04900360107422,83.33799743652344 C161.2989959716797,83.33799743652344 187.5489959716797,59.17300033569336 187.5489959716797,25.6299991607666 C187.5489959716797,25.6299991607666 187.5489959716797,-62.494998931884766 187.5489959716797,-62.494998931884766 C187.5489959716797,-73.9530029296875 178.1739959716797,-83.3280029296875 166.71600341796875,-83.3280029296875z"/></g></g><g class="primary design" transform="matrix(1,0,0,1,0,-359)" opacity="1" style="display: none;"><g opacity="1" transform="matrix(1,0,0,1,250.0019989013672,143.22900390625)"><path stroke-linecap="round" stroke-linejoin="round" fill-opacity="0" class="primary" stroke="rgb(18,19,49)" stroke-opacity="1" stroke-width="42" d=" M82.93599700927734,43.37099838256836 C82.93599700927734,43.37099838256836 0.010999999940395355,-39.27199935913086 0.010999999940395355,-39.27199935913086 C0.010999999940395355,-39.27199935913086 -83.16999816894531,43.638999938964844 -83.16999816894531,43.638999938964844"/></g><g opacity="1" transform="matrix(1,0,0,1,250.00599670410156,218.74899291992188)"><path stroke-linecap="round" stroke-linejoin="round" fill-opacity="0" class="primary" stroke="rgb(18,19,49)" stroke-opacity="1" stroke-width="42" d=" M0.007000000216066837,-114.79199981689453 C0.007000000216066837,-114.79199981689453 -0.014000000432133675,113.79199981689453 -0.014000000432133675,113.79199981689453"/></g></g><g class="primary design" transform="matrix(1,0,0,1,0,0)" opacity="1" style="display: none;"><g opacity="1" transform="matrix(1,0,0,1,250.00599670410156,218.74899291992188)"><path stroke-linecap="round" stroke-linejoin="round" fill-opacity="0" class="primary" stroke="rgb(18,19,49)" stroke-opacity="1" stroke-width="42" d=" M82.69100189208984,-31.909000396728516 C82.69100189208984,-31.909000396728516 0.007000000216066837,-114.79199981689453 0.007000000216066837,-114.79199981689453 C0.007000000216066837,-114.79199981689453 -83.18599700927734,-31.893999099731445 -83.18599700927734,-31.893999099731445 M0.007000000216066837,-114.79199981689453 C0.007000000216066837,-114.79199981689453 0,114.29199981689453 0,114.29199981689453"/></g></g><g class="primary design" transform="matrix(1,0,0,1,0,0)" opacity="1" style="display: none;"><g opacity="1" transform="matrix(1,0,0,1,250.04600524902344,354.1669921875)"><path class="primary" fill="rgb(18,19,49)" fill-opacity="1" d=" M166.66700744628906,-83.33300018310547 C155.20899963378906,-83.33300018310547 145.83299255371094,-73.95800018310547 145.83299255371094,-62.5 C145.83299255371094,-62.5 145.83299255371094,25.625 145.83299255371094,25.625 C145.83299255371094,40.83399963378906 128.54100036621094,41.66699981689453 125,41.66699981689453 C125,41.66699981689453 -125,41.66699981689453 -125,41.66699981689453 C-128.54100036621094,41.66699981689453 -145.83299255371094,40.83399963378906 -145.83299255371094,25.625 C-145.83299255371094,25.625 -145.83299255371094,-62.5 -145.83299255371094,-62.5 C-145.83299255371094,-73.95800018310547 -155.20899963378906,-83.33300018310547 -166.66700744628906,-83.33300018310547 C-178.125,-83.33300018310547 -187.5,-73.95800018310547 -187.5,-62.5 C-187.5,-62.5 -187.5,25.625 -187.5,25.625 C-187.5,59.167999267578125 -161.25,83.33300018310547 -125,83.33300018310547 C-125,83.33300018310547 125,83.33300018310547 125,83.33300018310547 C161.25,83.33300018310547 187.5,59.167999267578125 187.5,25.625 C187.5,25.625 187.5,-62.5 187.5,-62.5 C187.5,-73.95800018310547 178.125,-83.33300018310547 166.66700744628906,-83.33300018310547z"/></g><g opacity="1" transform="matrix(1,0,0,1,249.94200134277344,218.75)"><path class="primary" fill="rgb(18,19,49)" fill-opacity="1" d=" M-83.2300033569336,-10.416999816894531 C-77.81300354003906,-10.416999816894531 -72.60399627685547,-12.5 -68.43699645996094,-16.45800018310547 C-68.43699645996094,-16.45800018310547 -20.729999542236328,-64.31199645996094 -20.729999542236328,-64.31199645996094 C-20.729999542236328,-64.31199645996094 -20.729999542236328,114.58300018310547 -20.729999542236328,114.58300018310547 C-20.729999542236328,126.04100036621094 -11.354000091552734,135.41700744628906 0.10400000214576721,135.41700744628906 C11.562000274658203,135.41700744628906 20.937000274658203,126.04100036621094 20.937000274658203,114.58300018310547 C20.937000274658203,114.58300018310547 20.937000274658203,-64.31199645996094 20.937000274658203,-64.31199645996094 C20.937000274658203,-64.31199645996094 68.6449966430664,-16.45800018310547 68.6449966430664,-16.45800018310547 C76.7699966430664,-8.333999633789062 89.89600372314453,-8.333999633789062 98.02100372314453,-16.45800018310547 C106.14600372314453,-24.58300018310547 106.14600372314453,-37.70899963378906 98.02100372314453,-45.83399963378906 C98.02100372314453,-45.83399963378906 15.357999801635742,-128.4969940185547 15.357999801635742,-128.4969940185547 C11.541000366210938,-132.67999267578125 6.179999828338623,-135.41700744628906 0.10400000214576721,-135.41700744628906 C-5.692999839782715,-135.41700744628906 -10.928000450134277,-132.9949951171875 -14.71500015258789,-129.13999938964844 C-14.71500015258789,-129.13999938964844 -98.02200317382812,-45.83399963378906 -98.02200317382812,-45.83399963378906 C-106.14600372314453,-37.70899963378906 -106.14600372314453,-24.58300018310547 -98.02200317382812,-16.45800018310547 C-93.8550033569336,-12.5 -88.64700317382812,-10.416999816894531 -83.2300033569336,-10.416999816894531z"/></g></g><g class="primary design" transform="matrix(1,0,0,1,0,0)" opacity="1" style="display: block;"><g opacity="1" transform="matrix(1,0,0,1,250.04600524902344,354.1669921875)"><path class="primary" fill="rgb(18,19,49)" fill-opacity="1" d=" M166.66700744628906,-83.33300018310547 C155.20899963378906,-83.33300018310547 145.83299255371094,-73.95800018310547 145.83299255371094,-62.5 C145.83299255371094,-62.5 145.83299255371094,25.625 145.83299255371094,25.625 C145.83299255371094,40.83399963378906 128.54100036621094,41.66699981689453 125,41.66699981689453 C125,41.66699981689453 -125,41.66699981689453 -125,41.66699981689453 C-128.54100036621094,41.66699981689453 -145.83299255371094,40.83399963378906 -145.83299255371094,25.625 C-145.83299255371094,25.625 -145.83299255371094,-62.5 -145.83299255371094,-62.5 C-145.83299255371094,-73.95800018310547 -155.20899963378906,-83.33300018310547 -166.66700744628906,-83.33300018310547 C-178.125,-83.33300018310547 -187.5,-73.95800018310547 -187.5,-62.5 C-187.5,-62.5 -187.5,25.625 -187.5,25.625 C-187.5,59.167999267578125 -161.25,83.33300018310547 -125,83.33300018310547 C-125,83.33300018310547 125,83.33300018310547 125,83.33300018310547 C161.25,83.33300018310547 187.5,59.167999267578125 187.5,25.625 C187.5,25.625 187.5,-62.5 187.5,-62.5 C187.5,-73.95800018310547 178.125,-83.33300018310547 166.66700744628906,-83.33300018310547z"/></g><g opacity="1" transform="matrix(1,0,0,1,249.94200134277344,218.75)"><path class="primary" fill="rgb(18,19,49)" fill-opacity="1" d=" M-83.2300033569336,-10.416999816894531 C-77.81300354003906,-10.416999816894531 -72.60399627685547,-12.5 -68.43699645996094,-16.45800018310547 C-68.43699645996094,-16.45800018310547 -20.729999542236328,-64.31199645996094 -20.729999542236328,-64.31199645996094 C-20.729999542236328,-64.31199645996094 -20.729999542236328,114.58300018310547 -20.729999542236328,114.58300018310547 C-20.729999542236328,126.04100036621094 -11.354000091552734,135.41700744628906 0.10400000214576721,135.41700744628906 C11.562000274658203,135.41700744628906 20.937000274658203,126.04100036621094 20.937000274658203,114.58300018310547 C20.937000274658203,114.58300018310547 20.937000274658203,-64.31199645996094 20.937000274658203,-64.31199645996094 C20.937000274658203,-64.31199645996094 68.6449966430664,-16.45800018310547 68.6449966430664,-16.45800018310547 C76.7699966430664,-8.333999633789062 89.89600372314453,-8.333999633789062 98.02100372314453,-16.45800018310547 C106.14600372314453,-24.58300018310547 106.14600372314453,-37.70899963378906 98.02100372314453,-45.83399963378906 C98.02100372314453,-45.83399963378906 15.357999801635742,-128.4969940185547 15.357999801635742,-128.4969940185547 C11.541000366210938,-132.67999267578125 6.179999828338623,-135.41700744628906 0.10400000214576721,-135.41700744628906 C-5.692999839782715,-135.41700744628906 -10.928000450134277,-132.9949951171875 -14.71500015258789,-129.13999938964844 C-14.71500015258789,-129.13999938964844 -98.02200317382812,-45.83399963378906 -98.02200317382812,-45.83399963378906 C-106.14600372314453,-37.70899963378906 -106.14600372314453,-24.58300018310547 -98.02200317382812,-16.45800018310547 C-93.8550033569336,-12.5 -88.64700317382812,-10.416999816894531 -83.2300033569336,-10.416999816894531z"/></g></g></g></g></svg>